<svg height="512pt" viewBox="0 0 512 512" width="512pt" xmlns="http://www.w3.org/2000/svg" xmlns:xlink="http://www.w3.org/1999/xlink"><linearGradient id="a" gradientUnits="userSpaceOnUse" x1="74.9807" x2="437.0193" y1="74.9807" y2="437.0193"><stop offset="0" stop-color="#e0f4ff"/><stop offset="1" stop-color="#bbdcff"/></linearGradient><linearGradient id="b"><stop offset="0" stop-color="#61d7a8"/><stop offset="1" stop-color="#00ab94"/></linearGradient><linearGradient id="c" gradientUnits="userSpaceOnUse" x1="131.0143" x2="207.9928" xlink:href="#b" y1="318.2437" y2="395.2221"/><linearGradient id="d" gradientUnits="userSpaceOnUse" x1="260.4348" x2="366.625" xlink:href="#b" y1="313.1601" y2="419.3503"/><linearGradient id="e"><stop offset="0" stop-color="#fa5e97"/><stop offset="1" stop-color="#d94f88"/></linearGradient><linearGradient id="f" gradientUnits="userSpaceOnUse" x1="173.1614" x2="248.4559" xlink:href="#e" y1="331.5483" y2="406.8429"/><linearGradient id="g" gradientUnits="userSpaceOnUse" x1="260.1637" x2="340.8656" xlink:href="#e" y1="283.5616" y2="364.2636"/><linearGradient id="h"><stop offset="0" stop-color="#00c0f1"/><stop offset="1" stop-color="#009ae4"/></linearGradient><linearGradient id="i" gradientUnits="userSpaceOnUse" x1="348.276" x2="395.5758" xlink:href="#h" y1="109.1577" y2="156.4575"/><linearGradient id="j" gradientUnits="userSpaceOnUse" x1="320.1342" x2="381.3654" xlink:href="#h" y1="155.4533" y2="216.6846"/><linearGradient id="k"><stop offset="0" stop-color="#ff7cb9"/><stop offset="1" stop-color="#fa5e97"/></linearGradient><linearGradient id="l" gradientUnits="userSpaceOnUse" x1="203.3225" x2="307.3413" xlink:href="#k" y1="230.6344" y2="334.6533"/><linearGradient id="m" gradientUnits="userSpaceOnUse" x1="204.6599" x2="306.0039" y1="95.6811" y2="197.0251"><stop offset="0" stop-color="#47568c"/><stop offset="1" stop-color="#2c3b73"/></linearGradient><linearGradient id="n" gradientUnits="userSpaceOnUse" x1="196.6863" x2="313.9775" y1="125.3546" y2="242.6458"><stop offset="0" stop-color="#61729b"/><stop offset="1" stop-color="#47568c"/></linearGradient><linearGradient id="o" gradientUnits="userSpaceOnUse" x1="238.8105" x2="271.8534" xlink:href="#k" y1="228.5619" y2="261.6047"/><path d="m512 256c0 141.386719-114.613281 256-256 256s-256-114.613281-256-256 114.613281-256 256-256 256 114.613281 256 256zm0 0" fill="url(#a)"/><path d="m198.582031 314.34375c8.398438 4.105469 17.171875 7.464844 26.320313 9.707031h-25.574219v75.917969c0 5.222656-4.105469 9.332031-9.335937 9.332031h-56.003907v-74.796875c0-21.28125 14.5625-39.949218 35.285157-45.175781l11.199218-2.800781h.375c.371094 11.949218 7.09375 22.589844 17.734375 27.816406zm0 0" fill="url(#c)"/><path d="m376.675781 333.195312v76.105469h-130.679687c-5.226563 0-9.332032-4.109375-9.332032-9.332031v-63.039062c5.785157 4.480468 11.949219 8.214843 18.667969 11.574218 1.308594.558594 2.613281 1.308594 3.921875 1.867188 15.679688 7.09375 33.414063 11.015625 51.148438 11.015625 22.777344 0 42.003906-15.496094 47.789062-38.457031 1.679688-7.09375.933594-14.1875-2.238281-20.160157l9.519531.929688c7.28125 8.027343 11.203125 18.667969 11.203125 29.496093zm0 0" fill="url(#d)"/><path d="m234.609375 335.4375 11.386719 8.027344v65.835937h-56.003906v-94.585937h9.335937zm0 0" fill="url(#f)"/><path d="m367.339844 325.171875c-6.90625 27.441406-30.054688 45.546875-56.9375 45.546875-19.226563 0-38.082032-4.105469-55.070313-11.945312-15.496093-6.910157-29.496093-16.804688-41.070312-29.308594l11.574219-5.226563c9.707031 2.425781 19.601562 3.546875 29.496093 3.546875 19.601563 0 39.203125-4.667968 56.75-13.441406 11.015625-5.414062 17.921875-16.617188 17.921875-29.125 0-2.425781-.371094-5.039062-1.117187-7.28125 0-.183594 0-.183594 0-.183594l1.117187-.375c11.949219 0 22.960938 5.414063 30.242188 14.746094 7.46875 9.523438 9.894531 21.472656 7.09375 33.046875zm0 0" fill="url(#g)"/><path d="m367.339844 109.367188c-18.292969 0-33.976563 10.453124-41.628906 25.761718 4.273437 10.6875 3.878906 19.191406 4.105468 21.09375 5.171875 4.023438 7.984375 6.046875 10.640625 9.148438h26.882813c25.761718 0 46.671875-20.90625 46.671875-46.671875v-9.332031zm0 0" fill="url(#i)"/><path d="m367.339844 165.371094c-8.585938-11.386719-22.027344-18.667969-37.335938-18.667969h-1.121094c.890626 4.003906.796876 7.605469.933594 9.519531 5.171875 4.023438 7.984375 6.046875 10.640625 9.148438 4.480469 5.039062 8.214844 11.199218 8.214844 18.667968 0 10.078126-6.53125 18.292969-13.8125 24.082032 8.398437 8.214844 19.785156 13.253906 32.480469 13.253906h9.335937v-28.003906c0-10.453125-3.546875-20.347656-9.335937-28zm0 0" fill="url(#j)"/><path d="m339.339844 285.21875c0 16.054688-8.960938 30.429688-23.148438 37.523438-19.042968 9.523437-39.953125 14.375-60.859375 14.375s-41.816406-4.851563-60.859375-14.375c-14.1875-7.09375-23.148437-21.46875-23.148437-37.523438 0-6.90625 2.054687-13.8125 5.976562-19.601562l18.292969-27.253907c3.171875 7.28125 7.65625 14.1875 13.441406 19.976563 12.507813 12.320312 28.9375 19.039062 46.296875 19.039062s33.789063-6.71875 46.296875-19.039062c5.785156-5.976563 10.265625-12.695313 13.441406-19.976563l18.292969 27.253907c3.921875 5.789062 5.976563 12.695312 5.976563 19.601562zm0 0" fill="url(#l)"/><path d="m274 90.699219h-37.335938c-36.027343 0-65.339843 29.308593-65.339843 65.335937v7.65625c15.121093-15.496094 47.046875-26.324218 84.007812-26.324218 36.960938 0 68.886719 10.828124 84.007813 26.324218v-7.65625c0-36.027344-29.3125-65.335937-65.339844-65.335937zm0 0" fill="url(#m)"/><path d="m358.007812 184.039062c0 13.625-8.402343 26.320313-24.457031 36.402344l-10.265625 6.71875c-.5625-1.492187-2.988281-10.265625-3.359375-11.199218-20.351562-13.441407-42.378906-19.601563-64.40625-19.601563h-.375c-22.027343 0-44.054687 6.160156-64.40625 19.601563-.371093.933593-2.796875 9.707031-3.359375 11.199218l-10.265625-6.71875c-16.054687-10.082031-24.457031-22.777344-24.457031-36.402344 0-31.363281 45.179688-56.003906 102.675781-56.003906 57.496094 0 102.675781 24.640625 102.675781 56.003906zm0 0" fill="url(#n)"/><path d="m330.003906 212.042969c0 20.53125-8.402344 39.199219-21.839844 52.828125-13.628906 13.441406-32.296874 21.84375-52.832031 21.84375-20.535156 0-39.203125-8.402344-52.832031-21.84375-13.4375-13.625-21.839844-32.292969-21.839844-52.828125v-.375c22.214844-16.613281 48.535156-24.828125 74.671875-24.828125 26.320313 0 52.457031 8.398437 74.484375 25.015625zm0 0" fill="#fed2a4"/><path d="m288.375 245.082031c-8.773438 8.777344-20.535156 13.628907-33.042969 13.628907-12.507812 0-24.269531-4.855469-33.042969-13.628907l13.253907-13.253906c5.226562 5.226563 12.507812 8.027344 19.789062 8.027344s14.5625-2.800781 19.789063-8.027344zm0 0" fill="url(#o)"/></svg>